<svg width="89" height="24" viewBox="0 0 89 24" fill="none" xmlns="http://www.w3.org/2000/svg">
<path d="M78.069 21.334L83.3073 16.393L85.82 19.0569L80.5818 23.9979L78.069 21.334Z" fill="url(#paint0_linear_3239_12920)"/>
<path d="M74.6393 17.6981L86.2725 6.72529L88.7839 9.38792L77.1507 20.3608L74.6393 17.6981Z" fill="url(#paint1_linear_3239_12920)"/>
<path d="M78.0682 21.333L80.7374 18.8152L83.2511 21.48L80.5818 23.9979L78.0682 21.333Z" fill="#94C93D"/>
<path d="M74.6393 17.6981L80.6899 11.9901L83.2034 14.6547L77.1519 20.3628L74.6393 17.6981Z" fill="#94C93D"/>
<path d="M71.095 14.1724L86.12 0L88.638 2.66951L73.6131 16.8419L71.095 14.1724Z" fill="url(#paint2_linear_3239_12920)"/>
<path d="M71.0925 14.1705L80.6607 5.14528L83.1741 7.80993L73.6059 16.8352L71.0925 14.1705Z" fill="#94C93D"/>
<path d="M13.0129 16.782V8.33018H15.7277V16.7278C15.7277 18.0851 16.8317 18.773 18.0805 18.773C19.3293 18.773 20.4151 18.0851 20.4151 16.7278V8.33018H23.0936V16.782C23.0936 19.6233 20.759 21.1618 18.0805 21.1618C15.4021 21.1618 13.0129 19.6233 13.0129 16.782Z" fill="#080807"/>
<path d="M41.3181 8.28884V20.9939H38.6034V14.9145L35.4179 18.1164H35.074L31.8885 14.9993V20.9939H29.1738V8.28884L35.2548 14.3156L41.3181 8.28884Z" fill="#080807"/>
<path d="M50.222 15.7459V18.6418H53.2264C54.1493 18.6418 54.6926 18.0988 54.7466 17.2481C54.7646 16.7414 54.5658 16.2707 54.1856 15.9993C53.878 15.7822 53.516 15.7459 53.0999 15.7459H50.222ZM50.222 10.6604V13.5379H52.7017C53.6246 13.5379 54.2039 13.0312 54.2219 12.1805C54.2399 11.2574 53.6426 10.6604 52.7017 10.6604H50.222ZM55.6152 14.4248C56.7918 14.9136 57.4253 15.945 57.4253 17.2481C57.4253 19.4741 55.9411 20.9946 53.4075 20.9946H47.5253V8.34379H52.9005C55.217 8.34379 56.8823 9.71916 56.8823 12.09C56.8823 13.0129 56.4116 13.9361 55.6152 14.4248Z" fill="#080807"/>
<path d="M2.69674 10.701H7.42286L5.05203 8.33018H0V20.999H2.69674V16.4924H7.23959V14.1216H2.69674V10.701Z" fill="#080807"/>
<path d="M65.6934 10.4487H65.6831V8.46163L62.9847 11.16V11.5814H62.9787V18.8425H62.9514V20.9963H65.7164V18.8425H65.6934V10.4487Z" fill="#080807"/>
<path d="M80.5815 24L78.0688 21.336L83.3071 16.395L85.8198 19.059L80.5815 24Z" fill="url(#paint3_linear_3239_12920)"/>
<path d="M77.1511 20.3588L74.6397 17.6961L86.2728 6.72332L88.7843 9.386L77.1511 20.3588Z" fill="url(#paint4_linear_3239_12920)"/>
<path d="M78.0682 21.333L80.7374 18.8152L83.2511 21.48L80.5818 23.9979L78.0682 21.333Z" fill="#94C93D"/>
<path d="M74.6393 17.6981L80.6899 11.9901L83.2034 14.6547L77.1519 20.3628L74.6393 17.6981Z" fill="#94C93D"/>
<path d="M73.6039 16.8345L71.0948 14.1746L86.1197 0.00208774L88.6288 2.66199L73.6039 16.8345Z" fill="url(#paint5_linear_3239_12920)"/>
<path d="M71.0925 14.1705L80.6607 5.14528L83.1741 7.80993L73.6059 16.8352L71.0925 14.1705Z" fill="#94C93D"/>
<defs>
<linearGradient id="paint0_linear_3239_12920" x1="88.7835" y1="12" x2="-0.000798246" y2="12.0005" gradientUnits="userSpaceOnUse">
<stop stop-color="#93C956"/>
<stop offset="1" stop-color="#2B8B3F"/>
</linearGradient>
<linearGradient id="paint1_linear_3239_12920" x1="88.7842" y1="12.0002" x2="-8.75197e-05" y2="11.9993" gradientUnits="userSpaceOnUse">
<stop stop-color="#93C956"/>
<stop offset="1" stop-color="#2B8B3F"/>
</linearGradient>
<linearGradient id="paint2_linear_3239_12920" x1="88.7842" y1="11.9567" x2="-9.08185e-05" y2="11.9574" gradientUnits="userSpaceOnUse">
<stop stop-color="#93C956"/>
<stop offset="1" stop-color="#2B8B3F"/>
</linearGradient>
<linearGradient id="paint3_linear_3239_12920" x1="44.3909" y1="0.000504" x2="44.3908" y2="24.0005" gradientUnits="userSpaceOnUse">
<stop stop-color="#93C956"/>
<stop offset="1" stop-color="#2B8B3F"/>
</linearGradient>
<linearGradient id="paint4_linear_3239_12920" x1="44.3933" y1="4.8e-05" x2="44.3933" y2="24" gradientUnits="userSpaceOnUse">
<stop stop-color="#93C956"/>
<stop offset="1" stop-color="#2B8B3F"/>
</linearGradient>
<linearGradient id="paint5_linear_3239_12920" x1="44.3893" y1="2.4e-05" x2="44.3893" y2="24" gradientUnits="userSpaceOnUse">
<stop stop-color="#93C956"/>
<stop offset="1" stop-color="#2B8B3F"/>
</linearGradient>
</defs>
</svg>
